<svg width="48" height="48" viewBox="0 0 48 48" fill="none" xmlns="http://www.w3.org/2000/svg"><circle cx="24" cy="24" r="24" fill="#0077D4"/><g clip-path="url(#a)" fill="#fff"><path d="M37.518 31.085H10.901v1.119h26.617zm1.451 1.899H9.393v1.118H38.97zm1.451 1.898H8V36h32.42zM37.518 17.02H10.901v1.118h26.617zm-21.229-.716 7.911-2.377 7.765 2.377h3.24L24.2 12.898l-11.15 3.406z"/><path d="m24.2 11-13.299 4.103v1.201l13.3-4.051 13.317 4.051v-1.201zM12.467 29.642s0 .837.946.837c.952 0 .894-.837.894-.837V18.816h-.696v10.851s0 .198-.25.198c-.249 0-.197-.249-.197-.249v-10.8h-.697zm4.378.836h.556v-7.01l.696 7.01h.588V18.815h-.588v6.238l-.697-6.238h-.555zm4.435 0h1.789v-.613h-1.01v-5.272h.754v-.64h-.754v-4.55h.754v-.588H21.28zm10.27-8.198v-2.621s-.026-.837-.921-.837-.895.837-.895.837v9.988s-.025.838.895.838.92-.838.92-.838v-2.926h-.696v2.926s0 .224-.224.224c-.21 0-.25-.224-.25-.224v-9.994s0-.25.25-.25c.224 0 .224.25.224.25v2.62h.696zm4.434-2.627s.058-.838-.92-.838-.978.838-.978.838v9.988s0 .837.92.837c.978 0 .978-.837.978-.837zm-.67 9.988s.025.224-.25.224-.275-.224-.275-.224v-9.988s0-.25.25-.25c.28 0 .28.25.28.25v9.988zm-8.871 0s0 .224-.179.211-.179-.21-.179-.21v-2.928h-.722v2.927s-.026.837.895.837c.92 0 .92-.837.92-.837v-2.524c0-1.368-1.086-3.975-1.086-4.838v-2.626s-.026-.25.166-.25c.198 0 .198.25.198.25v2.62h.722v-2.62s.026-.863-.895-.837c-.92.025-.92.837-.92.837v2.23c0 1.463 1.087 3.93 1.087 5.061v2.697z"/></g><defs><clipPath id="a"><path fill="#fff" d="M8 11h32.419v25H8z"/></clipPath></defs></svg>