<svg width="400" height="100" xmlns="http://www.w3.org/2000/svg"><path d="M10 9.734h380v80.532H10z" fill="#0069b4"/><path d="M120.24 11.41v77.178h268.08V11.41z" fill="#e8f0fe"/><path d="M291.44 41.782c-1.654-.979-3.835-1.881-5.942-1.881-1.128 0-2.406.3-3.085.976-.376.378-.677.979-.677 1.507 0 .753.527 1.202 1.054 1.503.75.452 1.88.678 3.235 1.13l2.858.902c1.882.6 3.838 1.353 5.567 2.934 1.956 1.806 2.633 3.836 2.633 6.395 0 4.438-1.956 7.296-3.46 8.803-3.311 3.31-7.374 3.834-10.907 3.834-4.516 0-9.404-.977-13.768-4.813l4.589-7.298c1.053.903 2.558 1.956 3.688 2.482a10.1 10.1 0 0 0 4.512 1.055c.677 0 2.409 0 3.385-.753.679-.527 1.128-1.355 1.128-2.18 0-.604-.224-1.356-1.202-1.956-.754-.454-1.729-.754-3.31-1.205l-2.707-.827c-1.958-.603-3.989-1.656-5.418-3.084-1.58-1.658-2.406-3.538-2.406-6.096 0-3.233 1.277-5.942 3.232-7.749 3.01-2.783 7.074-3.384 10.157-3.384 4.966 0 8.426 1.278 11.135 2.859zm-37.312 3.61c-.077-.3-.603-2.406-2.181-3.912-1.205-1.127-2.935-1.88-5.117-1.88-2.783 0-4.438 1.129-5.492 2.181-.828.904-1.58 2.107-1.88 3.612zm10.006 6.47h-25.052c0 1.806.678 4.214 2.032 5.719 1.656 1.804 3.913 2.106 5.567 2.106 1.58 0 3.236-.302 4.363-.978.149-.076 1.43-.905 2.332-2.784l10.232 1.053c-1.505 4.737-4.514 7.22-6.469 8.426-3.236 1.955-6.846 2.482-10.607 2.482-5.041 0-9.479-.902-13.39-4.815-2.934-2.933-5.041-7.372-5.041-12.94 0-4.815 1.728-9.779 5.113-13.239 4.064-4.063 9.105-4.816 12.866-4.816 3.762 0 9.179.678 13.315 5.04 3.988 4.214 4.74 9.481 4.74 13.617zM187.1 33.206h10.834v3.988c3.31-4.214 7.22-4.89 10.382-4.89 2.931 0 6.771.526 9.63 3.385 3.16 3.16 3.384 7.146 3.384 9.855V66.76h-10.832V49.53c0-2.18-.075-4.963-1.806-6.694-.827-.825-2.182-1.504-4.137-1.504-2.258 0-3.686.903-4.514 1.806-1.806 1.805-2.106 4.212-2.106 6.393V66.76h-10.834zm-32.047 0v18.508c0 1.504.15 3.837 1.881 5.417.752.675 2.106 1.579 4.515 1.579 2.03 0 3.609-.677 4.587-1.58 1.582-1.504 1.806-3.76 1.806-5.416V33.206h10.834v19.56c0 3.837-.377 7.448-3.76 10.758-3.838 3.761-9.48 4.364-13.466 4.364-4.139 0-9.705-.603-13.543-4.364-3.084-3.008-3.687-6.393-3.687-10.081V33.206zm195.85 25.729c-4.86 0-8.816-3.956-8.816-8.817 0-4.86 3.955-8.815 8.816-8.815 4.86 0 8.814 3.956 8.814 8.815 0 4.861-3.954 8.817-8.814 8.817m-.047-26.795c-9.868 0-17.897 8.028-17.897 17.896 0 9.87 8.028 17.898 17.897 17.898s17.898-8.028 17.898-17.898c0-9.868-8.03-17.896-17.898-17.896m-25.403 24.2a8.77 8.77 0 0 1-6.233 2.575c-4.87 0-8.832-3.96-8.832-8.829 0-4.866 3.962-8.829 8.832-8.829 2.335 0 4.533.904 6.199 2.545l.223.221 4.022-8.548-.152-.108a17.8 17.8 0 0 0-10.34-3.29c-9.885 0-17.927 8.043-17.927 17.926 0 9.887 8.043 17.93 17.927 17.93a17.8 17.8 0 0 0 10.32-3.276l.154-.11-3.967-8.435z" fill="#0069b4"/><path d="M86.729 61.89s.055.44-.495.44c-.549 0-.549-.44-.549-.44V42.216s0-.496.494-.496c.55 0 .55.496.55.496zM64.805 25.223l-26.214 8.015-.004 2.372 26.214-8.016 26.22 8.018v-2.378zm-.004 3.678-21.957 6.71h6.35l15.608-4.674 15.606 4.674h6.343zm-26.214 8.125v2.196h52.428v-2.196zm3.08 3.54V61.89s-.001 1.648 1.865 1.648c1.87 0 1.76-1.648 1.76-1.648V40.566h-1.375v21.38s0 .382-.493.382c-.495 0-.385-.492-.385-.492v-21.27zm8.628 0v22.971h1.097V49.728l1.374 13.81h1.155V40.565h-1.155v12.277l-1.374-12.277zm8.738 0v22.971h3.516v-1.209h-1.978V51.944h1.484V50.68H60.57v-8.96h1.484v-1.152zm9.837 0c-1.813.054-1.813 1.648-1.813 1.648v4.398c0 2.885 2.142 7.749 2.142 9.974v5.303s0 .44-.357.413c-.36-.028-.359-.413-.359-.413v-5.77h-1.426v5.77s-.054 1.648 1.757 1.648c1.816 0 1.815-1.648 1.815-1.648s0-3.846-.004-4.969c-.004-2.695-2.142-7.836-2.142-9.538v-5.17s-.054-.494.33-.494c.387 0 .386.495.386.495v5.166h1.43v-5.166s.053-1.702-1.76-1.648zm8.572 0c-1.756 0-1.755 1.648-1.755 1.648V61.89s-.06 1.647 1.755 1.647c1.813 0 1.814-1.647 1.814-1.647v-5.77h-1.373v5.77s-.002.439-.44.439c-.413 0-.495-.44-.495-.44V42.215s0-.495.495-.495c.439 0 .44.495.44.495v5.166h1.373v-5.166s-.055-1.648-1.814-1.648m8.79 0c-1.92 0-1.92 1.648-1.92 1.648V61.89s0 1.647 1.813 1.647c1.923 0 1.922-1.647 1.922-1.647V42.214s.111-1.648-1.814-1.648M38.589 64.74v2.198h52.43V64.74zm-2.968 3.738v2.196h58.257v-2.196zm-2.747 3.74v2.194h63.863v-2.195z" fill="#fff"/></svg>